<mxfile host="app.diagrams.net" modified="2024-05-06T08:40:17.232Z" agent="Mozilla/5.0 (Windows NT 10.0; Win64; x64) AppleWebKit/537.36 (KHTML, like Gecko) Chrome/124.0.0.0 Safari/537.36 Edg/124.0.0.0" etag="us9CBz-dcYpDzrsaWgrY" version="24.3.0" type="github">
  <diagram name="第 1 页" id="wCAXER8XMt7L9X_sIx5C">
    <mxGraphModel dx="1602" dy="1006" grid="1" gridSize="10" guides="1" tooltips="1" connect="1" arrows="1" fold="1" page="1" pageScale="1" pageWidth="827" pageHeight="1169" math="0" shadow="0">
      <root>
        <mxCell id="0" />
        <mxCell id="1" parent="0" />
        <mxCell id="H70Ub8duzeOr0FnNnSRm-25" value="" style="rounded=0;whiteSpace=wrap;html=1;fillColor=#dae8fc;strokeColor=#6c8ebf;fontSize=14;" parent="1" vertex="1">
          <mxGeometry x="503" y="80" width="280" height="420" as="geometry" />
        </mxCell>
        <mxCell id="H70Ub8duzeOr0FnNnSRm-1" value="" style="rounded=0;whiteSpace=wrap;html=1;fillColor=#d5e8d4;strokeColor=#82b366;fontSize=14;" parent="1" vertex="1">
          <mxGeometry x="783" y="81" width="260" height="420" as="geometry" />
        </mxCell>
        <mxCell id="H70Ub8duzeOr0FnNnSRm-2" value="" style="rounded=0;whiteSpace=wrap;html=1;fillColor=#f8cecc;strokeColor=#b85450;fontSize=14;" parent="1" vertex="1">
          <mxGeometry x="100" y="80" width="403" height="420" as="geometry" />
        </mxCell>
        <mxCell id="H70Ub8duzeOr0FnNnSRm-3" value="DevOps云" style="rounded=0;whiteSpace=wrap;html=1;fillColor=#f8cecc;strokeColor=#b85450;fontSize=14;" parent="1" vertex="1">
          <mxGeometry x="100" y="40" width="403" height="40" as="geometry" />
        </mxCell>
        <mxCell id="H70Ub8duzeOr0FnNnSRm-4" style="edgeStyle=orthogonalEdgeStyle;rounded=0;orthogonalLoop=1;jettySize=auto;html=1;exitX=0.5;exitY=1;exitDx=0;exitDy=0;exitPerimeter=0;entryX=0.5;entryY=0;entryDx=0;entryDy=0;fontSize=14;" parent="1" source="H70Ub8duzeOr0FnNnSRm-5" target="H70Ub8duzeOr0FnNnSRm-7" edge="1">
          <mxGeometry relative="1" as="geometry" />
        </mxCell>
        <mxCell id="H70Ub8duzeOr0FnNnSRm-5" value="开始" style="strokeWidth=2;html=1;shape=mxgraph.flowchart.start_1;whiteSpace=wrap;fontSize=14;" parent="1" vertex="1">
          <mxGeometry x="174" y="140" width="90" height="40" as="geometry" />
        </mxCell>
        <mxCell id="H70Ub8duzeOr0FnNnSRm-6" value="App（H5）" style="rounded=0;whiteSpace=wrap;html=1;fillColor=#d5e8d4;strokeColor=#82b366;fontSize=14;" parent="1" vertex="1">
          <mxGeometry x="783" y="40" width="260" height="40" as="geometry" />
        </mxCell>
        <mxCell id="H70Ub8duzeOr0FnNnSRm-7" value="维护FAQ知识库与反馈的问题" style="rounded=1;whiteSpace=wrap;html=1;absoluteArcSize=1;arcSize=14;strokeWidth=2;fontSize=14;" parent="1" vertex="1">
          <mxGeometry x="169" y="230" width="100" height="50" as="geometry" />
        </mxCell>
        <mxCell id="H70Ub8duzeOr0FnNnSRm-8" style="edgeStyle=orthogonalEdgeStyle;rounded=0;orthogonalLoop=1;jettySize=auto;html=1;exitX=0.5;exitY=1;exitDx=0;exitDy=0;entryX=0.5;entryY=0;entryDx=0;entryDy=0;entryPerimeter=0;fontSize=14;" parent="1" source="H70Ub8duzeOr0FnNnSRm-7" edge="1">
          <mxGeometry relative="1" as="geometry">
            <mxPoint x="219" y="320" as="targetPoint" />
          </mxGeometry>
        </mxCell>
        <mxCell id="H70Ub8duzeOr0FnNnSRm-9" style="edgeStyle=orthogonalEdgeStyle;rounded=0;orthogonalLoop=1;jettySize=auto;html=1;exitX=0;exitY=0.5;exitDx=0;exitDy=0;entryX=1;entryY=0.5;entryDx=0;entryDy=0;startArrow=classic;startFill=1;fontSize=14;strokeWidth=2;" parent="1" source="H70Ub8duzeOr0FnNnSRm-10" target="H70Ub8duzeOr0FnNnSRm-13" edge="1">
          <mxGeometry relative="1" as="geometry" />
        </mxCell>
        <mxCell id="H70Ub8duzeOr0FnNnSRm-10" value="查询FAQ" style="rounded=1;whiteSpace=wrap;html=1;absoluteArcSize=1;arcSize=14;strokeWidth=2;fontSize=14;" parent="1" vertex="1">
          <mxGeometry x="890" y="230" width="100" height="50" as="geometry" />
        </mxCell>
        <mxCell id="H70Ub8duzeOr0FnNnSRm-11" value="结束" style="strokeWidth=2;html=1;shape=mxgraph.flowchart.terminator;whiteSpace=wrap;fontSize=14;" parent="1" vertex="1">
          <mxGeometry x="169" y="440" width="100" height="40" as="geometry" />
        </mxCell>
        <mxCell id="H70Ub8duzeOr0FnNnSRm-12" style="edgeStyle=orthogonalEdgeStyle;rounded=0;orthogonalLoop=1;jettySize=auto;html=1;exitX=0.5;exitY=1;exitDx=0;exitDy=0;exitPerimeter=0;entryX=0.5;entryY=0;entryDx=0;entryDy=0;entryPerimeter=0;fontSize=14;" parent="1" target="H70Ub8duzeOr0FnNnSRm-11" edge="1">
          <mxGeometry relative="1" as="geometry">
            <mxPoint x="219" y="370" as="sourcePoint" />
          </mxGeometry>
        </mxCell>
        <mxCell id="H70Ub8duzeOr0FnNnSRm-13" value="接收请求，查询FAQ" style="rounded=1;whiteSpace=wrap;html=1;absoluteArcSize=1;arcSize=14;strokeWidth=2;fontSize=14;" parent="1" vertex="1">
          <mxGeometry x="593" y="230" width="100" height="50" as="geometry" />
        </mxCell>
        <mxCell id="H70Ub8duzeOr0FnNnSRm-16" value="" style="strokeWidth=2;html=1;shape=mxgraph.flowchart.database;whiteSpace=wrap;fontSize=14;" parent="1" vertex="1">
          <mxGeometry x="173" y="320" width="109" height="60" as="geometry" />
        </mxCell>
        <mxCell id="H70Ub8duzeOr0FnNnSRm-24" value="UCS云" style="rounded=0;whiteSpace=wrap;html=1;fillColor=#dae8fc;strokeColor=#6c8ebf;fontSize=14;" parent="1" vertex="1">
          <mxGeometry x="503" y="40" width="280" height="40" as="geometry" />
        </mxCell>
        <mxCell id="H70Ub8duzeOr0FnNnSRm-28" value="" style="endArrow=classic;startArrow=classic;html=1;rounded=0;exitX=1;exitY=0.15;exitDx=0;exitDy=0;exitPerimeter=0;edgeStyle=orthogonalEdgeStyle;strokeWidth=2;" parent="1" source="H70Ub8duzeOr0FnNnSRm-16" edge="1">
          <mxGeometry width="50" height="50" relative="1" as="geometry">
            <mxPoint x="540" y="310" as="sourcePoint" />
            <mxPoint x="590" y="260" as="targetPoint" />
            <Array as="points">
              <mxPoint x="520" y="329" />
              <mxPoint x="520" y="260" />
            </Array>
          </mxGeometry>
        </mxCell>
      </root>
    </mxGraphModel>
  </diagram>
</mxfile>
